<svg width="11" height="11" viewBox="0 0 11 11" fill="none" xmlns="http://www.w3.org/2000/svg">
<g clip-path="url(#clip0_34_144)">
<path d="M5.0204 10.0408C7.79148 10.0408 10.0408 7.79148 10.0408 5.0204C10.0408 2.24934 7.79148 0 5.0204 0C2.24934 0 0 2.24934 0 5.0204C0 7.79148 2.24934 10.0408 5.0204 10.0408ZM5.0204 9.20406C2.70708 9.20406 0.836736 7.33374 0.836736 5.0204C0.836736 2.70708 2.70708 0.836736 5.0204 0.836736C7.33374 0.836736 9.20406 2.70708 9.20406 5.0204C9.20406 7.33374 7.33374 9.20406 5.0204 9.20406Z" fill="white" fill-opacity="0.85"/>
<path d="M5.02055 7.3288C5.89176 7.3288 6.58573 6.91536 6.822 6.25087C6.85643 6.16232 6.86626 6.09831 6.86626 6.02447C6.86626 5.81778 6.7334 5.68981 6.52665 5.68981C6.37898 5.68981 6.28055 5.7636 6.20182 5.93098C6.00002 6.41331 5.58658 6.67913 5.03039 6.67913C4.24779 6.67913 3.72114 5.99494 3.72114 4.97611C3.72114 3.95726 4.24779 3.26819 5.03039 3.26819C5.58658 3.26819 6.00002 3.53397 6.20182 4.02125C6.28055 4.18859 6.37898 4.2575 6.52665 4.2575C6.7334 4.2575 6.86626 4.12953 6.86626 3.9228C6.86626 3.84405 6.85643 3.78499 6.822 3.69639C6.58079 3.03685 5.89176 2.61848 5.02055 2.61848C3.74576 2.61848 2.92871 3.53889 2.92871 4.97611C2.92871 6.41331 3.74084 7.3288 5.02055 7.3288Z" fill="white" fill-opacity="0.85"/>
</g>
<defs>
<clipPath id="clip0_34_144">
<rect width="10.2229" height="10.0457" fill="white"/>
</clipPath>
</defs>
</svg>
